<svg width="165" height="30" viewBox="0 0 165 30" fill="none" xmlns="http://www.w3.org/2000/svg">
<path d="M4.896 2.30561C6.0864 2.30561 7.04 2.47201 7.7568 2.80481C8.4736 3.12481 8.9856 3.64961 9.2928 4.37921C9.6128 5.10881 9.7728 6.08801 9.7728 7.31681C9.7728 8.52001 9.6128 9.48641 9.2928 10.216C8.9856 10.9456 8.4736 11.4704 7.7568 11.7904C7.04 12.1104 6.0864 12.2704 4.896 12.2704C3.7184 12.2704 2.76479 12.1104 2.03519 11.7904C1.31839 11.4704 0.799995 10.9456 0.479995 10.216C0.159995 9.48641 -5.28622e-06 8.52001 -5.28622e-06 7.31681C-5.28622e-06 6.08801 0.159995 5.10881 0.479995 4.37921C0.799995 3.64961 1.31839 3.12481 2.03519 2.80481C2.76479 2.47201 3.7184 2.30561 4.896 2.30561ZM4.896 4.37921C4.40959 4.37921 4.02559 4.46241 3.744 4.62881C3.4624 4.79521 3.264 5.08961 3.14879 5.51201C3.03359 5.93441 2.97599 6.53601 2.97599 7.31681C2.97599 8.08481 3.03359 8.68001 3.14879 9.10241C3.264 9.52481 3.4624 9.81921 3.744 9.98561C4.02559 10.1392 4.40959 10.216 4.896 10.216C5.3824 10.216 5.7664 10.1392 6.048 9.98561C6.3296 9.81921 6.528 9.52481 6.6432 9.10241C6.7584 8.68001 6.816 8.08481 6.816 7.31681C6.816 6.53601 6.7584 5.93441 6.6432 5.51201C6.528 5.08961 6.3296 4.79521 6.048 4.62881C5.7664 4.46241 5.3824 4.37921 4.896 4.37921ZM27.7887 6.94401C29.7301 6.94401 31.1274 7.65867 31.9807 9.08801C32.8341 10.5173 33.2607 12.5867 33.2607 15.296C33.2607 17.3653 33.0367 18.9973 32.5887 20.192C32.1621 21.3653 31.5114 22.208 30.6367 22.72C29.7621 23.2107 28.6527 23.456 27.3087 23.456C26.2421 23.456 25.1967 23.3067 24.1727 23.008C23.1701 22.688 22.2421 22.1973 21.3887 21.536L21.6447 19.616C22.4767 19.8507 23.2234 20.0533 23.8847 20.224C24.5461 20.3947 25.2714 20.48 26.0607 20.48C26.8501 20.48 27.4687 20.352 27.9167 20.096C28.3861 19.8187 28.7274 19.3067 28.9407 18.56C29.1541 17.8133 29.2607 16.736 29.2607 15.328C29.2607 13.9413 29.1647 12.864 28.9727 12.096C28.7807 11.328 28.4607 10.7947 28.0127 10.496C27.5861 10.176 27.0207 10.016 26.3167 10.016C25.5487 10.016 24.8234 10.1867 24.1407 10.528C23.4581 10.848 22.6687 11.328 21.7727 11.968L21.3247 9.92001C21.8154 9.34401 22.4021 8.83201 23.0847 8.38401C23.7887 7.93601 24.5461 7.58401 25.3567 7.32801C26.1674 7.07201 26.9781 6.94401 27.7887 6.94401ZM21.1647 7.32801L21.5487 10.368L21.9007 10.816V20.96L21.7407 21.344C21.8047 21.9627 21.8474 22.5813 21.8687 23.2C21.8901 23.84 21.9007 24.4907 21.9007 25.152V29.28H18.0287V7.32801H21.1647ZM40.7422 7.32801V17.952C40.7209 18.7413 40.8702 19.3067 41.1902 19.648C41.5316 19.9893 42.0756 20.16 42.8222 20.16C43.5689 20.16 44.3156 20 45.0622 19.68C45.8089 19.36 46.7156 18.88 47.7822 18.24L48.1662 20.544C46.9716 21.504 45.8196 22.2293 44.7102 22.72C43.6009 23.2107 42.4489 23.456 41.2542 23.456C38.3316 23.456 36.8702 22.016 36.8702 19.136V7.32801H40.7422ZM51.2702 7.32801V23.04H48.1982L47.7822 20L47.3982 19.552V7.32801H51.2702ZM58.6305 7.32801L59.1425 10.4L59.4945 10.848V23.04H55.6225V7.32801H58.6305ZM66.3105 6.94401L65.9265 10.528H64.8065C63.9745 10.528 63.1318 10.6667 62.2785 10.944C61.4252 11.2213 60.3585 11.6373 59.0785 12.192L58.8225 9.92001C59.9318 8.98134 61.0625 8.25601 62.2145 7.74401C63.3665 7.21067 64.4758 6.94401 65.5425 6.94401H66.3105ZM75.6305 6.94401C78.1692 6.94401 79.9932 7.39201 81.1025 8.28801C82.2118 9.16267 82.7772 10.464 82.7985 12.192C82.8198 13.6213 82.4785 14.7093 81.7745 15.456C81.0918 16.1813 79.9505 16.544 78.3505 16.544H69.3905V14.144H77.2945C78.0198 14.144 78.4785 13.952 78.6705 13.568C78.8838 13.184 78.9905 12.7147 78.9905 12.16C78.9692 11.2853 78.7132 10.6773 78.2225 10.336C77.7532 9.99467 76.9425 9.82401 75.7905 9.82401C74.7878 9.82401 74.0092 9.96267 73.4545 10.24C72.8998 10.5173 72.5052 11.0187 72.2705 11.744C72.0572 12.4693 71.9505 13.5147 71.9505 14.88C71.9505 16.3307 72.0892 17.4507 72.3665 18.24C72.6438 19.0293 73.1025 19.5733 73.7425 19.872C74.3825 20.1493 75.2358 20.288 76.3025 20.288C77.0918 20.288 77.9985 20.256 79.0225 20.192C80.0678 20.128 81.0705 20.0427 82.0305 19.936L82.4145 22.4C81.8385 22.6347 81.1772 22.8267 80.4305 22.976C79.6838 23.1253 78.9052 23.232 78.0945 23.296C77.3052 23.3813 76.5585 23.424 75.8545 23.424C73.9345 23.424 72.3878 23.1467 71.2145 22.592C70.0625 22.016 69.2198 21.12 68.6865 19.904C68.1745 18.688 67.9185 17.12 67.9185 15.2C67.9185 13.1307 68.1745 11.4987 68.6865 10.304C69.2198 9.08801 70.0518 8.22401 71.1825 7.71201C72.3345 7.20001 73.8172 6.94401 75.6305 6.94401ZM98.986 0.0320072C99.306 0.0320072 99.7647 0.0320072 100.362 0.0320072C100.981 0.0320072 101.674 0.0426737 102.442 0.0640068C103.21 0.0853411 103.999 0.117341 104.81 0.160007C105.642 0.181341 106.431 0.224007 107.178 0.288008C107.925 0.352008 108.575 0.426675 109.13 0.512007V18.528C109.13 19.1467 109.29 19.616 109.61 19.936C109.93 20.2347 110.399 20.384 111.018 20.384H112.33L112.778 22.848C112.565 22.9547 112.245 23.0507 111.818 23.136C111.413 23.2213 110.986 23.2747 110.538 23.296C110.111 23.3387 109.749 23.36 109.45 23.36C108.149 23.36 107.125 23.0187 106.378 22.336C105.631 21.6533 105.258 20.704 105.258 19.488V2.88001H100.362C99.466 2.85867 98.8473 3.04001 98.506 3.42401C98.1647 3.80801 97.994 4.50134 97.994 5.50401V23.04H94.09V5.02401C94.09 3.97867 94.25 3.08267 94.57 2.33601C94.89 1.58934 95.402 1.01334 96.106 0.608007C96.8313 0.202674 97.7913 0.0106742 98.986 0.0320072ZM102.25 7.32801V10.016H91.338V7.48801L94.186 7.32801H102.25ZM123.058 6.94401C124.316 6.94401 125.372 7.11467 126.226 7.45601C127.1 7.77601 127.762 8.33067 128.21 9.12001C128.658 9.90934 128.882 10.9973 128.882 12.384V23.04H125.81L125.266 19.648L124.978 19.2V12.352C124.978 11.52 124.786 10.9227 124.402 10.56C124.018 10.176 123.282 9.98401 122.194 9.98401C121.383 9.98401 120.359 10.016 119.122 10.08C117.906 10.144 116.679 10.2293 115.442 10.336L115.09 7.68001C115.836 7.53067 116.679 7.40267 117.618 7.29601C118.556 7.18934 119.506 7.10401 120.466 7.04001C121.426 6.97601 122.29 6.94401 123.058 6.94401ZM127.218 13.376L127.186 15.776H119.986C119.346 15.7973 118.887 15.968 118.61 16.288C118.332 16.608 118.194 17.0453 118.194 17.6V18.464C118.194 19.104 118.364 19.5947 118.706 19.936C119.047 20.256 119.58 20.416 120.306 20.416C120.882 20.416 121.522 20.2987 122.226 20.064C122.93 19.8293 123.623 19.488 124.306 19.04C125.01 18.592 125.639 18.0587 126.194 17.44V19.456C125.98 19.776 125.671 20.16 125.266 20.608C124.86 21.0347 124.359 21.4613 123.762 21.888C123.186 22.3147 122.514 22.6667 121.746 22.944C120.999 23.2213 120.167 23.36 119.25 23.36C118.311 23.36 117.468 23.2 116.722 22.88C115.975 22.5387 115.388 22.048 114.962 21.408C114.535 20.7467 114.322 19.936 114.322 18.976V17.312C114.322 16.0747 114.727 15.1147 115.538 14.432C116.37 13.728 117.5 13.376 118.93 13.376H127.218ZM148.069 7.32801L142.661 22.112C142.554 22.3893 142.383 22.6133 142.149 22.784C141.935 22.9547 141.669 23.04 141.349 23.04H137.957C137.658 23.04 137.391 22.9547 137.157 22.784C136.922 22.6133 136.751 22.3893 136.645 22.112L131.237 7.32801H135.365L138.661 17.632C138.81 18.1013 138.949 18.5813 139.077 19.072C139.205 19.5413 139.322 20 139.429 20.448H139.845C139.994 19.9787 140.133 19.5093 140.261 19.04C140.41 18.5707 140.549 18.1013 140.677 17.632L143.973 7.32801H148.069ZM157.412 6.94401C159.95 6.94401 161.774 7.39201 162.884 8.28801C163.993 9.16267 164.558 10.464 164.58 12.192C164.601 13.6213 164.26 14.7093 163.556 15.456C162.873 16.1813 161.732 16.544 160.132 16.544H151.172V14.144H159.076C159.801 14.144 160.26 13.952 160.452 13.568C160.665 13.184 160.772 12.7147 160.772 12.16C160.75 11.2853 160.494 10.6773 160.004 10.336C159.534 9.99467 158.724 9.82401 157.572 9.82401C156.569 9.82401 155.79 9.96267 155.236 10.24C154.681 10.5173 154.286 11.0187 154.052 11.744C153.838 12.4693 153.732 13.5147 153.732 14.88C153.732 16.3307 153.87 17.4507 154.148 18.24C154.425 19.0293 154.884 19.5733 155.524 19.872C156.164 20.1493 157.017 20.288 158.084 20.288C158.873 20.288 159.78 20.256 160.804 20.192C161.849 20.128 162.852 20.0427 163.812 19.936L164.196 22.4C163.62 22.6347 162.958 22.8267 162.212 22.976C161.465 23.1253 160.686 23.232 159.876 23.296C159.086 23.3813 158.34 23.424 157.636 23.424C155.716 23.424 154.169 23.1467 152.996 22.592C151.844 22.016 151.001 21.12 150.468 19.904C149.956 18.688 149.7 17.12 149.7 15.2C149.7 13.1307 149.956 11.4987 150.468 10.304C151.001 9.08801 151.833 8.22401 152.964 7.71201C154.116 7.20001 155.598 6.94401 157.412 6.94401Z" fill="#779611"/>
</svg>
